<mxfile host="app.diagrams.net" modified="2022-10-31T03:15:26.660Z" agent="5.0 (Windows NT 10.0; Win64; x64) AppleWebKit/537.36 (KHTML, like Gecko) Chrome/106.0.0.0 Safari/537.36" etag="4fA7zpDfo1ekxArEKBdC" version="20.5.1" type="github" pages="2">
  <diagram id="0w87BFuvhX8ZNDhpdfUk" name="第 1 页">
    <mxGraphModel dx="2175" dy="708" grid="1" gridSize="10" guides="1" tooltips="1" connect="1" arrows="1" fold="1" page="1" pageScale="1" pageWidth="827" pageHeight="1169" math="0" shadow="0">
      <root>
        <mxCell id="0" />
        <mxCell id="1" parent="0" />
        <mxCell id="uC2c-6fxyHixW8qhzzOM-1" value="" style="rounded=0;whiteSpace=wrap;html=1;fillColor=#fff2cc;strokeColor=#d6b656;" parent="1" vertex="1">
          <mxGeometry x="170" y="170" width="520" height="210" as="geometry" />
        </mxCell>
        <mxCell id="uC2c-6fxyHixW8qhzzOM-2" value="" style="rounded=0;whiteSpace=wrap;html=1;fillColor=#f8cecc;strokeColor=#b85450;" parent="1" vertex="1">
          <mxGeometry x="170" y="440" width="520" height="210" as="geometry" />
        </mxCell>
        <mxCell id="uC2c-6fxyHixW8qhzzOM-88" style="edgeStyle=none;rounded=0;orthogonalLoop=1;jettySize=auto;html=1;exitX=0;exitY=1;exitDx=0;exitDy=0;entryX=0;entryY=0.75;entryDx=0;entryDy=0;fontSize=15;" parent="1" source="uC2c-6fxyHixW8qhzzOM-41" target="uC2c-6fxyHixW8qhzzOM-81" edge="1">
          <mxGeometry relative="1" as="geometry" />
        </mxCell>
        <mxCell id="uC2c-6fxyHixW8qhzzOM-92" value="get" style="edgeLabel;html=1;align=center;verticalAlign=middle;resizable=0;points=[];fontSize=15;" parent="uC2c-6fxyHixW8qhzzOM-88" vertex="1" connectable="0">
          <mxGeometry x="0.3445" y="-4" relative="1" as="geometry">
            <mxPoint x="34" y="47" as="offset" />
          </mxGeometry>
        </mxCell>
        <mxCell id="uC2c-6fxyHixW8qhzzOM-4" value="&lt;b&gt;&lt;font style=&quot;font-size: 15px;&quot;&gt;VM&lt;/font&gt;&lt;/b&gt;" style="text;html=1;strokeColor=none;fillColor=none;align=center;verticalAlign=middle;whiteSpace=wrap;rounded=0;" parent="1" vertex="1">
          <mxGeometry x="365" y="350" width="60" height="30" as="geometry" />
        </mxCell>
        <mxCell id="uC2c-6fxyHixW8qhzzOM-5" value="&lt;b&gt;&lt;font style=&quot;font-size: 15px;&quot;&gt;Quickvisor&lt;/font&gt;&lt;/b&gt;" style="text;html=1;strokeColor=none;fillColor=none;align=center;verticalAlign=middle;whiteSpace=wrap;rounded=0;" parent="1" vertex="1">
          <mxGeometry x="384" y="610" width="60" height="30" as="geometry" />
        </mxCell>
        <mxCell id="uC2c-6fxyHixW8qhzzOM-39" value="" style="ellipse;whiteSpace=wrap;html=1;aspect=fixed;fontSize=15;fillColor=#d5e8d4;strokeColor=#82b366;" parent="1" vertex="1">
          <mxGeometry x="310" y="170" width="130" height="130" as="geometry" />
        </mxCell>
        <mxCell id="uC2c-6fxyHixW8qhzzOM-40" value="" style="ellipse;whiteSpace=wrap;html=1;aspect=fixed;fontSize=15;fillColor=default;" parent="1" vertex="1">
          <mxGeometry x="325" y="185" width="100" height="100" as="geometry" />
        </mxCell>
        <mxCell id="uC2c-6fxyHixW8qhzzOM-74" style="edgeStyle=none;rounded=0;orthogonalLoop=1;jettySize=auto;html=1;entryX=1;entryY=0.5;entryDx=0;entryDy=0;fontSize=15;" parent="1" source="uC2c-6fxyHixW8qhzzOM-39" target="uC2c-6fxyHixW8qhzzOM-60" edge="1">
          <mxGeometry relative="1" as="geometry" />
        </mxCell>
        <mxCell id="uC2c-6fxyHixW8qhzzOM-41" value="avail" style="text;html=1;strokeColor=none;fillColor=none;align=center;verticalAlign=middle;whiteSpace=wrap;rounded=0;fontSize=15;" parent="1" vertex="1">
          <mxGeometry x="325" y="195" width="60" height="30" as="geometry" />
        </mxCell>
        <mxCell id="uC2c-6fxyHixW8qhzzOM-50" value="" style="group" parent="1" vertex="1" connectable="0">
          <mxGeometry x="330" y="205" width="130" height="130" as="geometry" />
        </mxCell>
        <mxCell id="uC2c-6fxyHixW8qhzzOM-47" value="" style="ellipse;whiteSpace=wrap;html=1;aspect=fixed;fontSize=15;fillColor=#dae8fc;strokeColor=#6c8ebf;" parent="uC2c-6fxyHixW8qhzzOM-50" vertex="1">
          <mxGeometry width="130" height="130" as="geometry" />
        </mxCell>
        <mxCell id="uC2c-6fxyHixW8qhzzOM-48" value="" style="ellipse;whiteSpace=wrap;html=1;aspect=fixed;fontSize=15;fillColor=default;" parent="uC2c-6fxyHixW8qhzzOM-50" vertex="1">
          <mxGeometry x="15" y="15" width="100" height="100" as="geometry" />
        </mxCell>
        <mxCell id="uC2c-6fxyHixW8qhzzOM-49" value="used" style="text;html=1;strokeColor=none;fillColor=none;align=center;verticalAlign=middle;whiteSpace=wrap;rounded=0;fontSize=15;" parent="uC2c-6fxyHixW8qhzzOM-50" vertex="1">
          <mxGeometry x="35" y="50" width="60" height="30" as="geometry" />
        </mxCell>
        <mxCell id="uC2c-6fxyHixW8qhzzOM-94" style="edgeStyle=none;rounded=0;orthogonalLoop=1;jettySize=auto;html=1;exitX=0.25;exitY=0;exitDx=0;exitDy=0;entryX=1;entryY=0;entryDx=0;entryDy=0;fontSize=15;" parent="1" source="uC2c-6fxyHixW8qhzzOM-51" target="uC2c-6fxyHixW8qhzzOM-39" edge="1">
          <mxGeometry relative="1" as="geometry" />
        </mxCell>
        <mxCell id="uC2c-6fxyHixW8qhzzOM-95" value="add" style="edgeLabel;html=1;align=center;verticalAlign=middle;resizable=0;points=[];fontSize=15;" parent="uC2c-6fxyHixW8qhzzOM-94" vertex="1" connectable="0">
          <mxGeometry x="-0.2099" relative="1" as="geometry">
            <mxPoint as="offset" />
          </mxGeometry>
        </mxCell>
        <mxCell id="uC2c-6fxyHixW8qhzzOM-99" value="add" style="edgeLabel;html=1;align=center;verticalAlign=middle;resizable=0;points=[];fontSize=15;labelBackgroundColor=none;fontColor=default;" parent="uC2c-6fxyHixW8qhzzOM-94" vertex="1" connectable="0">
          <mxGeometry x="-0.2099" relative="1" as="geometry">
            <mxPoint as="offset" />
          </mxGeometry>
        </mxCell>
        <mxCell id="uC2c-6fxyHixW8qhzzOM-51" value="virtio-net&lt;br&gt;FE Driver" style="rounded=1;whiteSpace=wrap;html=1;fontSize=15;fillColor=#647687;strokeColor=#314354;fontColor=#ffffff;" parent="1" vertex="1">
          <mxGeometry x="540" y="265" width="120" height="60" as="geometry" />
        </mxCell>
        <mxCell id="uC2c-6fxyHixW8qhzzOM-52" value="" style="shape=table;startSize=0;container=1;collapsible=0;childLayout=tableLayout;fontSize=15;fillColor=default;" parent="1" vertex="1">
          <mxGeometry x="190" y="235" width="80" height="40" as="geometry" />
        </mxCell>
        <mxCell id="uC2c-6fxyHixW8qhzzOM-53" value="" style="shape=tableRow;horizontal=0;startSize=0;swimlaneHead=0;swimlaneBody=0;top=0;left=0;bottom=0;right=0;collapsible=0;dropTarget=0;fillColor=none;points=[[0,0.5],[1,0.5]];portConstraint=eastwest;fontSize=15;" parent="uC2c-6fxyHixW8qhzzOM-52" vertex="1">
          <mxGeometry width="80" height="13" as="geometry" />
        </mxCell>
        <mxCell id="uC2c-6fxyHixW8qhzzOM-54" value="" style="shape=partialRectangle;html=1;whiteSpace=wrap;connectable=0;overflow=hidden;fillColor=#d5e8d4;top=0;left=0;bottom=0;right=0;pointerEvents=1;fontSize=15;strokeColor=#82b366;" parent="uC2c-6fxyHixW8qhzzOM-53" vertex="1">
          <mxGeometry width="80" height="13" as="geometry">
            <mxRectangle width="80" height="13" as="alternateBounds" />
          </mxGeometry>
        </mxCell>
        <mxCell id="uC2c-6fxyHixW8qhzzOM-55" value="" style="shape=tableRow;horizontal=0;startSize=0;swimlaneHead=0;swimlaneBody=0;top=0;left=0;bottom=0;right=0;collapsible=0;dropTarget=0;fillColor=none;points=[[0,0.5],[1,0.5]];portConstraint=eastwest;fontSize=15;" parent="uC2c-6fxyHixW8qhzzOM-52" vertex="1">
          <mxGeometry y="13" width="80" height="14" as="geometry" />
        </mxCell>
        <mxCell id="uC2c-6fxyHixW8qhzzOM-56" value="" style="shape=partialRectangle;html=1;whiteSpace=wrap;connectable=0;overflow=hidden;fillColor=#d5e8d4;top=0;left=0;bottom=0;right=0;pointerEvents=1;fontSize=15;strokeColor=#82b366;" parent="uC2c-6fxyHixW8qhzzOM-55" vertex="1">
          <mxGeometry width="80" height="14" as="geometry">
            <mxRectangle width="80" height="14" as="alternateBounds" />
          </mxGeometry>
        </mxCell>
        <mxCell id="uC2c-6fxyHixW8qhzzOM-57" value="" style="shape=tableRow;horizontal=0;startSize=0;swimlaneHead=0;swimlaneBody=0;top=0;left=0;bottom=0;right=0;collapsible=0;dropTarget=0;fillColor=none;points=[[0,0.5],[1,0.5]];portConstraint=eastwest;fontSize=15;" parent="uC2c-6fxyHixW8qhzzOM-52" vertex="1">
          <mxGeometry y="27" width="80" height="13" as="geometry" />
        </mxCell>
        <mxCell id="uC2c-6fxyHixW8qhzzOM-58" value="" style="shape=partialRectangle;html=1;whiteSpace=wrap;connectable=0;overflow=hidden;fillColor=#dae8fc;top=0;left=0;bottom=0;right=0;pointerEvents=1;fontSize=15;strokeColor=#6c8ebf;" parent="uC2c-6fxyHixW8qhzzOM-57" vertex="1">
          <mxGeometry width="80" height="13" as="geometry">
            <mxRectangle width="80" height="13" as="alternateBounds" />
          </mxGeometry>
        </mxCell>
        <mxCell id="uC2c-6fxyHixW8qhzzOM-59" value="" style="shape=table;startSize=0;container=1;collapsible=0;childLayout=tableLayout;fontSize=15;fillColor=none;strokeColor=default;" parent="1" vertex="1">
          <mxGeometry x="190" y="235" width="80" height="40" as="geometry" />
        </mxCell>
        <mxCell id="uC2c-6fxyHixW8qhzzOM-60" value="" style="shape=tableRow;horizontal=0;startSize=0;swimlaneHead=0;swimlaneBody=0;top=0;left=0;bottom=0;right=0;collapsible=0;dropTarget=0;fillColor=none;points=[[0,0.5],[1,0.5]];portConstraint=eastwest;fontSize=15;" parent="uC2c-6fxyHixW8qhzzOM-59" vertex="1">
          <mxGeometry width="80" height="13" as="geometry" />
        </mxCell>
        <mxCell id="uC2c-6fxyHixW8qhzzOM-61" value="" style="shape=partialRectangle;html=1;whiteSpace=wrap;connectable=0;overflow=hidden;fillColor=none;top=0;left=0;bottom=0;right=0;pointerEvents=1;fontSize=15;" parent="uC2c-6fxyHixW8qhzzOM-60" vertex="1">
          <mxGeometry width="80" height="13" as="geometry">
            <mxRectangle width="80" height="13" as="alternateBounds" />
          </mxGeometry>
        </mxCell>
        <mxCell id="uC2c-6fxyHixW8qhzzOM-62" value="" style="shape=tableRow;horizontal=0;startSize=0;swimlaneHead=0;swimlaneBody=0;top=0;left=0;bottom=0;right=0;collapsible=0;dropTarget=0;fillColor=none;points=[[0,0.5],[1,0.5]];portConstraint=eastwest;fontSize=15;" parent="uC2c-6fxyHixW8qhzzOM-59" vertex="1">
          <mxGeometry y="13" width="80" height="14" as="geometry" />
        </mxCell>
        <mxCell id="uC2c-6fxyHixW8qhzzOM-63" value="" style="shape=partialRectangle;html=1;whiteSpace=wrap;connectable=0;overflow=hidden;fillColor=none;top=0;left=0;bottom=0;right=0;pointerEvents=1;fontSize=15;" parent="uC2c-6fxyHixW8qhzzOM-62" vertex="1">
          <mxGeometry width="80" height="14" as="geometry">
            <mxRectangle width="80" height="14" as="alternateBounds" />
          </mxGeometry>
        </mxCell>
        <mxCell id="uC2c-6fxyHixW8qhzzOM-64" value="" style="shape=tableRow;horizontal=0;startSize=0;swimlaneHead=0;swimlaneBody=0;top=0;left=0;bottom=0;right=0;collapsible=0;dropTarget=0;fillColor=none;points=[[0,0.5],[1,0.5]];portConstraint=eastwest;fontSize=15;" parent="uC2c-6fxyHixW8qhzzOM-59" vertex="1">
          <mxGeometry y="27" width="80" height="13" as="geometry" />
        </mxCell>
        <mxCell id="uC2c-6fxyHixW8qhzzOM-65" value="" style="shape=partialRectangle;html=1;whiteSpace=wrap;connectable=0;overflow=hidden;fillColor=none;top=0;left=0;bottom=0;right=0;pointerEvents=1;fontSize=15;" parent="uC2c-6fxyHixW8qhzzOM-64" vertex="1">
          <mxGeometry width="80" height="13" as="geometry">
            <mxRectangle width="80" height="13" as="alternateBounds" />
          </mxGeometry>
        </mxCell>
        <mxCell id="uC2c-6fxyHixW8qhzzOM-73" value="desc" style="text;html=1;align=center;verticalAlign=middle;resizable=0;points=[];autosize=1;strokeColor=none;fillColor=none;fontSize=15;" parent="1" vertex="1">
          <mxGeometry x="200" y="200" width="60" height="30" as="geometry" />
        </mxCell>
        <mxCell id="uC2c-6fxyHixW8qhzzOM-75" style="edgeStyle=none;rounded=0;orthogonalLoop=1;jettySize=auto;html=1;fontSize=15;" parent="1" edge="1">
          <mxGeometry relative="1" as="geometry">
            <mxPoint x="330" y="270" as="sourcePoint" />
            <mxPoint x="270" y="270" as="targetPoint" />
          </mxGeometry>
        </mxCell>
        <mxCell id="uC2c-6fxyHixW8qhzzOM-76" value="" style="shape=flexArrow;endArrow=classic;html=1;rounded=0;fontSize=15;fillColor=#f5f5f5;strokeColor=#666666;" parent="1" edge="1">
          <mxGeometry width="50" height="50" relative="1" as="geometry">
            <mxPoint x="640" y="505" as="sourcePoint" />
            <mxPoint x="640" y="325" as="targetPoint" />
          </mxGeometry>
        </mxCell>
        <mxCell id="uC2c-6fxyHixW8qhzzOM-77" value="interrupt" style="edgeLabel;html=1;align=center;verticalAlign=middle;resizable=0;points=[];fontSize=15;" parent="uC2c-6fxyHixW8qhzzOM-76" vertex="1" connectable="0">
          <mxGeometry x="-0.1455" y="-1" relative="1" as="geometry">
            <mxPoint as="offset" />
          </mxGeometry>
        </mxCell>
        <mxCell id="uC2c-6fxyHixW8qhzzOM-86" style="edgeStyle=none;rounded=0;orthogonalLoop=1;jettySize=auto;html=1;fontSize=15;" parent="1" edge="1">
          <mxGeometry relative="1" as="geometry">
            <mxPoint x="550" y="510" as="sourcePoint" />
            <mxPoint x="430" y="320" as="targetPoint" />
          </mxGeometry>
        </mxCell>
        <mxCell id="uC2c-6fxyHixW8qhzzOM-93" value="add" style="edgeLabel;html=1;align=center;verticalAlign=middle;resizable=0;points=[];fontSize=15;" parent="uC2c-6fxyHixW8qhzzOM-86" vertex="1" connectable="0">
          <mxGeometry x="-0.5212" y="1" relative="1" as="geometry">
            <mxPoint as="offset" />
          </mxGeometry>
        </mxCell>
        <mxCell id="uC2c-6fxyHixW8qhzzOM-101" value="add" style="edgeLabel;html=1;align=center;verticalAlign=middle;resizable=0;points=[];fontSize=15;labelBackgroundColor=none;" parent="uC2c-6fxyHixW8qhzzOM-86" vertex="1" connectable="0">
          <mxGeometry x="-0.5212" y="1" relative="1" as="geometry">
            <mxPoint as="offset" />
          </mxGeometry>
        </mxCell>
        <mxCell id="uC2c-6fxyHixW8qhzzOM-81" value="virtio-net&lt;br&gt;BE Device" style="rounded=1;whiteSpace=wrap;html=1;fontSize=15;fillColor=#d0cee2;strokeColor=#56517e;" parent="1" vertex="1">
          <mxGeometry x="540" y="500" width="120" height="60" as="geometry" />
        </mxCell>
        <mxCell id="uC2c-6fxyHixW8qhzzOM-83" value="" style="shape=flexArrow;endArrow=classic;startArrow=classic;html=1;rounded=0;fontSize=15;entryX=0.25;entryY=1;entryDx=0;entryDy=0;exitX=0.25;exitY=0;exitDx=0;exitDy=0;fillColor=#f5f5f5;strokeColor=#666666;" parent="1" source="uC2c-6fxyHixW8qhzzOM-81" target="uC2c-6fxyHixW8qhzzOM-51" edge="1">
          <mxGeometry width="100" height="100" relative="1" as="geometry">
            <mxPoint x="500" y="450" as="sourcePoint" />
            <mxPoint x="600" y="350" as="targetPoint" />
          </mxGeometry>
        </mxCell>
        <mxCell id="uC2c-6fxyHixW8qhzzOM-85" value="mmio&lt;br&gt;read/write" style="edgeLabel;html=1;align=center;verticalAlign=middle;resizable=0;points=[];fontSize=15;" parent="uC2c-6fxyHixW8qhzzOM-83" vertex="1" connectable="0">
          <mxGeometry x="0.4285" y="-3" relative="1" as="geometry">
            <mxPoint x="-3" y="45" as="offset" />
          </mxGeometry>
        </mxCell>
        <mxCell id="uC2c-6fxyHixW8qhzzOM-91" value="" style="endArrow=none;dashed=1;html=1;rounded=0;fontSize=15;exitX=0.541;exitY=1.026;exitDx=0;exitDy=0;exitPerimeter=0;entryX=0;entryY=1;entryDx=0;entryDy=0;" parent="1" source="uC2c-6fxyHixW8qhzzOM-47" target="uC2c-6fxyHixW8qhzzOM-41" edge="1">
          <mxGeometry width="50" height="50" relative="1" as="geometry">
            <mxPoint x="210" y="430" as="sourcePoint" />
            <mxPoint x="330" y="220" as="targetPoint" />
          </mxGeometry>
        </mxCell>
        <mxCell id="uC2c-6fxyHixW8qhzzOM-96" style="edgeStyle=none;rounded=0;orthogonalLoop=1;jettySize=auto;html=1;exitX=1;exitY=0;exitDx=0;exitDy=0;fontSize=15;entryX=0.006;entryY=0.154;entryDx=0;entryDy=0;entryPerimeter=0;" parent="1" source="uC2c-6fxyHixW8qhzzOM-47" target="uC2c-6fxyHixW8qhzzOM-51" edge="1">
          <mxGeometry relative="1" as="geometry" />
        </mxCell>
        <mxCell id="uC2c-6fxyHixW8qhzzOM-97" value="get" style="edgeLabel;html=1;align=center;verticalAlign=middle;resizable=0;points=[];fontSize=15;" parent="uC2c-6fxyHixW8qhzzOM-96" vertex="1" connectable="0">
          <mxGeometry x="-0.1189" relative="1" as="geometry">
            <mxPoint x="25" y="9" as="offset" />
          </mxGeometry>
        </mxCell>
        <mxCell id="uC2c-6fxyHixW8qhzzOM-100" value="get" style="edgeLabel;align=center;verticalAlign=middle;resizable=0;points=[];fontSize=15;labelBackgroundColor=none;html=1;" parent="uC2c-6fxyHixW8qhzzOM-96" vertex="1" connectable="0">
          <mxGeometry x="-0.1189" relative="1" as="geometry">
            <mxPoint x="25" y="9" as="offset" />
          </mxGeometry>
        </mxCell>
        <mxCell id="uC2c-6fxyHixW8qhzzOM-102" value="Vrtio-Net&lt;br&gt;FE Driver" style="rounded=0;whiteSpace=wrap;html=1;labelBackgroundColor=none;strokeColor=default;fontSize=15;fontColor=default;fillColor=none;" parent="1" vertex="1">
          <mxGeometry x="-190" y="1070" width="120" height="60" as="geometry" />
        </mxCell>
        <mxCell id="uC2c-6fxyHixW8qhzzOM-104" value="Dev status" style="rounded=0;whiteSpace=wrap;html=1;labelBackgroundColor=none;strokeColor=default;fontSize=15;fontColor=default;fillColor=none;" parent="1" vertex="1">
          <mxGeometry x="120" y="920" width="120" height="60" as="geometry" />
        </mxCell>
        <mxCell id="uC2c-6fxyHixW8qhzzOM-105" value="Feature bits" style="rounded=0;whiteSpace=wrap;html=1;labelBackgroundColor=none;strokeColor=default;fontSize=15;fontColor=default;fillColor=none;" parent="1" vertex="1">
          <mxGeometry x="120" y="1020" width="120" height="60" as="geometry" />
        </mxCell>
        <mxCell id="uC2c-6fxyHixW8qhzzOM-106" value="Config Space" style="rounded=0;whiteSpace=wrap;html=1;labelBackgroundColor=none;strokeColor=default;fontSize=15;fontColor=default;fillColor=none;" parent="1" vertex="1">
          <mxGeometry x="120" y="1120" width="120" height="60" as="geometry" />
        </mxCell>
        <mxCell id="uC2c-6fxyHixW8qhzzOM-107" value="VirtQueue" style="rounded=0;whiteSpace=wrap;html=1;labelBackgroundColor=none;strokeColor=default;fontSize=15;fontColor=default;fillColor=none;" parent="1" vertex="1">
          <mxGeometry x="120" y="1220" width="120" height="60" as="geometry" />
        </mxCell>
        <mxCell id="uC2c-6fxyHixW8qhzzOM-108" value="" style="endArrow=none;dashed=1;html=1;rounded=0;fontSize=15;fontColor=default;" parent="1" edge="1">
          <mxGeometry width="50" height="50" relative="1" as="geometry">
            <mxPoint x="440" y="1360" as="sourcePoint" />
            <mxPoint x="440" y="820" as="targetPoint" />
          </mxGeometry>
        </mxCell>
        <mxCell id="uC2c-6fxyHixW8qhzzOM-109" value="" style="rounded=1;whiteSpace=wrap;html=1;labelBackgroundColor=none;strokeColor=default;fontSize=15;fontColor=default;fillColor=none;" parent="1" vertex="1">
          <mxGeometry x="360" y="920" width="40" height="380" as="geometry" />
        </mxCell>
        <mxCell id="uC2c-6fxyHixW8qhzzOM-111" value="" style="endArrow=classic;startArrow=classic;html=1;rounded=0;fontSize=15;fontColor=default;edgeStyle=orthogonalEdgeStyle;exitX=1;exitY=0.5;exitDx=0;exitDy=0;entryX=0;entryY=0.5;entryDx=0;entryDy=0;" parent="1" source="uC2c-6fxyHixW8qhzzOM-102" target="uC2c-6fxyHixW8qhzzOM-104" edge="1">
          <mxGeometry width="50" height="50" relative="1" as="geometry">
            <mxPoint x="430" y="1090" as="sourcePoint" />
            <mxPoint x="480" y="1040" as="targetPoint" />
          </mxGeometry>
        </mxCell>
        <mxCell id="uC2c-6fxyHixW8qhzzOM-119" value="set/get status" style="edgeLabel;html=1;align=center;verticalAlign=middle;resizable=0;points=[];fontSize=17;fontColor=default;" parent="uC2c-6fxyHixW8qhzzOM-111" vertex="1" connectable="0">
          <mxGeometry x="0.6243" y="3" relative="1" as="geometry">
            <mxPoint x="-46" y="33" as="offset" />
          </mxGeometry>
        </mxCell>
        <mxCell id="uC2c-6fxyHixW8qhzzOM-113" value="" style="endArrow=classic;startArrow=classic;html=1;rounded=0;fontSize=15;fontColor=default;exitX=1;exitY=0.5;exitDx=0;exitDy=0;entryX=0;entryY=0.5;entryDx=0;entryDy=0;edgeStyle=orthogonalEdgeStyle;" parent="1" source="uC2c-6fxyHixW8qhzzOM-102" target="uC2c-6fxyHixW8qhzzOM-105" edge="1">
          <mxGeometry width="50" height="50" relative="1" as="geometry">
            <mxPoint y="1210" as="sourcePoint" />
            <mxPoint x="50" y="1160" as="targetPoint" />
          </mxGeometry>
        </mxCell>
        <mxCell id="uC2c-6fxyHixW8qhzzOM-120" value="read/init feature" style="edgeLabel;html=1;align=center;verticalAlign=middle;resizable=0;points=[];fontSize=17;fontColor=default;" parent="uC2c-6fxyHixW8qhzzOM-113" vertex="1" connectable="0">
          <mxGeometry x="0.4972" y="2" relative="1" as="geometry">
            <mxPoint x="-40" y="2" as="offset" />
          </mxGeometry>
        </mxCell>
        <mxCell id="uC2c-6fxyHixW8qhzzOM-114" value="" style="endArrow=classic;startArrow=classic;html=1;rounded=0;fontSize=15;fontColor=default;entryX=1;entryY=0.5;entryDx=0;entryDy=0;exitX=0;exitY=0.5;exitDx=0;exitDy=0;edgeStyle=orthogonalEdgeStyle;" parent="1" source="uC2c-6fxyHixW8qhzzOM-106" target="uC2c-6fxyHixW8qhzzOM-102" edge="1">
          <mxGeometry width="50" height="50" relative="1" as="geometry">
            <mxPoint y="1260" as="sourcePoint" />
            <mxPoint x="50" y="1210" as="targetPoint" />
          </mxGeometry>
        </mxCell>
        <mxCell id="uC2c-6fxyHixW8qhzzOM-121" value="cfg read/write" style="edgeLabel;html=1;align=center;verticalAlign=middle;resizable=0;points=[];fontSize=17;fontColor=default;" parent="uC2c-6fxyHixW8qhzzOM-114" vertex="1" connectable="0">
          <mxGeometry x="-0.417" y="-2" relative="1" as="geometry">
            <mxPoint x="-41" y="2" as="offset" />
          </mxGeometry>
        </mxCell>
        <mxCell id="uC2c-6fxyHixW8qhzzOM-115" value="" style="endArrow=classic;startArrow=classic;html=1;rounded=0;fontSize=15;fontColor=default;entryX=1;entryY=0.5;entryDx=0;entryDy=0;exitX=0;exitY=0.5;exitDx=0;exitDy=0;edgeStyle=orthogonalEdgeStyle;" parent="1" source="uC2c-6fxyHixW8qhzzOM-107" target="uC2c-6fxyHixW8qhzzOM-102" edge="1">
          <mxGeometry width="50" height="50" relative="1" as="geometry">
            <mxPoint x="-80" y="1280" as="sourcePoint" />
            <mxPoint x="-30" y="1230" as="targetPoint" />
          </mxGeometry>
        </mxCell>
        <mxCell id="uC2c-6fxyHixW8qhzzOM-122" value="write vring addr" style="edgeLabel;html=1;align=center;verticalAlign=middle;resizable=0;points=[];fontSize=17;fontColor=default;" parent="uC2c-6fxyHixW8qhzzOM-115" vertex="1" connectable="0">
          <mxGeometry x="-0.6092" y="-2" relative="1" as="geometry">
            <mxPoint x="-34" y="-18" as="offset" />
          </mxGeometry>
        </mxCell>
        <mxCell id="uC2c-6fxyHixW8qhzzOM-118" value="&lt;b&gt;&lt;font style=&quot;font-size: 17px;&quot;&gt;M&amp;nbsp; M&amp;nbsp; I&amp;nbsp; O&lt;/font&gt;&lt;/b&gt;" style="text;html=1;strokeColor=none;fillColor=none;align=center;verticalAlign=middle;whiteSpace=wrap;rounded=0;labelBackgroundColor=none;fontSize=15;fontColor=default;rotation=90;" parent="1" vertex="1">
          <mxGeometry x="290" y="1110" width="170" height="30" as="geometry" />
        </mxCell>
        <mxCell id="uC2c-6fxyHixW8qhzzOM-125" value="" style="endArrow=classic;startArrow=classic;html=1;rounded=0;fontSize=15;fontColor=default;edgeStyle=orthogonalEdgeStyle;exitX=0.5;exitY=1;exitDx=0;exitDy=0;entryX=1;entryY=0.5;entryDx=0;entryDy=0;" parent="1" source="uC2c-6fxyHixW8qhzzOM-118" target="uC2c-6fxyHixW8qhzzOM-104" edge="1">
          <mxGeometry width="50" height="50" relative="1" as="geometry">
            <mxPoint x="-60" y="1110" as="sourcePoint" />
            <mxPoint x="130" y="960" as="targetPoint" />
          </mxGeometry>
        </mxCell>
        <mxCell id="uC2c-6fxyHixW8qhzzOM-127" value="" style="endArrow=classic;startArrow=classic;html=1;rounded=0;fontSize=15;fontColor=default;edgeStyle=orthogonalEdgeStyle;entryX=1;entryY=0.5;entryDx=0;entryDy=0;exitX=0.5;exitY=1;exitDx=0;exitDy=0;" parent="1" source="uC2c-6fxyHixW8qhzzOM-118" target="uC2c-6fxyHixW8qhzzOM-105" edge="1">
          <mxGeometry width="50" height="50" relative="1" as="geometry">
            <mxPoint x="320" y="1130" as="sourcePoint" />
            <mxPoint x="250" y="1040" as="targetPoint" />
          </mxGeometry>
        </mxCell>
        <mxCell id="uC2c-6fxyHixW8qhzzOM-128" value="" style="endArrow=classic;startArrow=classic;html=1;rounded=0;fontSize=15;fontColor=default;edgeStyle=orthogonalEdgeStyle;entryX=1;entryY=0.5;entryDx=0;entryDy=0;exitX=0.5;exitY=1;exitDx=0;exitDy=0;" parent="1" source="uC2c-6fxyHixW8qhzzOM-118" target="uC2c-6fxyHixW8qhzzOM-106" edge="1">
          <mxGeometry width="50" height="50" relative="1" as="geometry">
            <mxPoint x="320" y="1130" as="sourcePoint" />
            <mxPoint x="250" y="1060" as="targetPoint" />
          </mxGeometry>
        </mxCell>
        <mxCell id="uC2c-6fxyHixW8qhzzOM-129" value="" style="endArrow=classic;startArrow=classic;html=1;rounded=0;fontSize=15;fontColor=default;edgeStyle=orthogonalEdgeStyle;entryX=1;entryY=0.5;entryDx=0;entryDy=0;exitX=0.5;exitY=1;exitDx=0;exitDy=0;" parent="1" source="uC2c-6fxyHixW8qhzzOM-118" target="uC2c-6fxyHixW8qhzzOM-107" edge="1">
          <mxGeometry width="50" height="50" relative="1" as="geometry">
            <mxPoint x="335" y="1135" as="sourcePoint" />
            <mxPoint x="250" y="1160" as="targetPoint" />
          </mxGeometry>
        </mxCell>
        <mxCell id="uC2c-6fxyHixW8qhzzOM-130" value="read/write" style="edgeLabel;html=1;align=center;verticalAlign=middle;resizable=0;points=[];fontSize=17;fontColor=default;" parent="uC2c-6fxyHixW8qhzzOM-129" vertex="1" connectable="0">
          <mxGeometry x="-0.6593" y="1" relative="1" as="geometry">
            <mxPoint x="-19" y="-1" as="offset" />
          </mxGeometry>
        </mxCell>
        <mxCell id="uC2c-6fxyHixW8qhzzOM-131" value="" style="shape=flexArrow;endArrow=classic;html=1;rounded=0;fontSize=17;fontColor=default;" parent="1" edge="1">
          <mxGeometry width="50" height="50" relative="1" as="geometry">
            <mxPoint x="400" y="1120" as="sourcePoint" />
            <mxPoint x="500" y="1120" as="targetPoint" />
          </mxGeometry>
        </mxCell>
        <mxCell id="uC2c-6fxyHixW8qhzzOM-132" value="Trap" style="edgeLabel;html=1;align=center;verticalAlign=middle;resizable=0;points=[];fontSize=17;fontColor=default;" parent="uC2c-6fxyHixW8qhzzOM-131" vertex="1" connectable="0">
          <mxGeometry x="-0.2199" y="2" relative="1" as="geometry">
            <mxPoint as="offset" />
          </mxGeometry>
        </mxCell>
        <mxCell id="uC2c-6fxyHixW8qhzzOM-137" value="" style="rounded=1;whiteSpace=wrap;html=1;labelBackgroundColor=none;strokeColor=default;fontSize=15;fontColor=default;fillColor=none;" parent="1" vertex="1">
          <mxGeometry x="500" y="920" width="40" height="380" as="geometry" />
        </mxCell>
        <mxCell id="uC2c-6fxyHixW8qhzzOM-142" style="edgeStyle=orthogonalEdgeStyle;rounded=0;orthogonalLoop=1;jettySize=auto;html=1;entryX=-0.07;entryY=0.565;entryDx=0;entryDy=0;entryPerimeter=0;fontSize=17;fontColor=default;" parent="1" target="uC2c-6fxyHixW8qhzzOM-139" edge="1">
          <mxGeometry relative="1" as="geometry">
            <mxPoint x="540" y="1135" as="sourcePoint" />
          </mxGeometry>
        </mxCell>
        <mxCell id="uC2c-6fxyHixW8qhzzOM-143" value="mmio read/write" style="edgeLabel;html=1;align=center;verticalAlign=middle;resizable=0;points=[];fontSize=17;fontColor=default;" parent="uC2c-6fxyHixW8qhzzOM-142" vertex="1" connectable="0">
          <mxGeometry x="-0.2345" y="3" relative="1" as="geometry">
            <mxPoint x="10" y="3" as="offset" />
          </mxGeometry>
        </mxCell>
        <mxCell id="uC2c-6fxyHixW8qhzzOM-138" value="&lt;font style=&quot;&quot;&gt;&lt;span style=&quot;font-size: 17px;&quot;&gt;&lt;b&gt;I/O emulator&lt;/b&gt;&lt;/span&gt;&lt;br&gt;&lt;span style=&quot;font-size: 17px;&quot;&gt;&lt;b&gt;&amp;nbsp;&amp;nbsp;&lt;/b&gt;&lt;/span&gt;&lt;/font&gt;" style="text;html=1;strokeColor=none;fillColor=none;align=center;verticalAlign=middle;whiteSpace=wrap;rounded=0;labelBackgroundColor=none;fontSize=15;fontColor=default;rotation=90;" parent="1" vertex="1">
          <mxGeometry x="425" y="1120" width="170" height="30" as="geometry" />
        </mxCell>
        <mxCell id="uC2c-6fxyHixW8qhzzOM-139" value="" style="rounded=1;whiteSpace=wrap;html=1;labelBackgroundColor=none;strokeColor=default;fontSize=15;fontColor=default;fillColor=none;" parent="1" vertex="1">
          <mxGeometry x="700" y="920" width="40" height="380" as="geometry" />
        </mxCell>
        <mxCell id="uC2c-6fxyHixW8qhzzOM-140" value="&lt;b&gt;&lt;font style=&quot;font-size: 17px;&quot;&gt;M&amp;nbsp; M&amp;nbsp; I&amp;nbsp; O&lt;/font&gt;&lt;/b&gt;" style="text;html=1;strokeColor=none;fillColor=none;align=center;verticalAlign=middle;whiteSpace=wrap;rounded=0;labelBackgroundColor=none;fontSize=15;fontColor=default;rotation=90;" parent="1" vertex="1">
          <mxGeometry x="635" y="1120" width="170" height="30" as="geometry" />
        </mxCell>
      </root>
    </mxGraphModel>
  </diagram>
  <diagram id="Im_6hp_-ZmbZA7q8d7Zh" name="第 2 页">
    <mxGraphModel dx="1540" dy="-360" grid="1" gridSize="10" guides="1" tooltips="1" connect="1" arrows="1" fold="1" page="1" pageScale="1" pageWidth="827" pageHeight="1169" math="0" shadow="0">
      <root>
        <mxCell id="0" />
        <mxCell id="1" parent="0" />
        <mxCell id="NtRPMFcYEE0_hsODAvMU-1" value="Dev status" style="rounded=0;whiteSpace=wrap;html=1;labelBackgroundColor=none;strokeColor=default;fontSize=15;fontColor=default;fillColor=none;" vertex="1" parent="1">
          <mxGeometry x="152.5" y="2030" width="120" height="60" as="geometry" />
        </mxCell>
        <mxCell id="NtRPMFcYEE0_hsODAvMU-2" value="Feature bits" style="rounded=0;whiteSpace=wrap;html=1;labelBackgroundColor=none;strokeColor=default;fontSize=15;fontColor=default;fillColor=none;" vertex="1" parent="1">
          <mxGeometry x="292.5" y="2030" width="120" height="60" as="geometry" />
        </mxCell>
        <mxCell id="NtRPMFcYEE0_hsODAvMU-3" value="Config Space" style="rounded=0;whiteSpace=wrap;html=1;labelBackgroundColor=none;strokeColor=default;fontSize=15;fontColor=default;fillColor=none;" vertex="1" parent="1">
          <mxGeometry x="432.5" y="2030" width="120" height="60" as="geometry" />
        </mxCell>
        <mxCell id="NtRPMFcYEE0_hsODAvMU-4" value="VirtQueue" style="rounded=0;whiteSpace=wrap;html=1;labelBackgroundColor=none;strokeColor=default;fontSize=15;fontColor=default;fillColor=none;" vertex="1" parent="1">
          <mxGeometry x="587.5" y="2030" width="120" height="60" as="geometry" />
        </mxCell>
        <mxCell id="NtRPMFcYEE0_hsODAvMU-5" value="" style="edgeStyle=orthogonalEdgeStyle;rounded=0;orthogonalLoop=1;jettySize=auto;html=1;" edge="1" parent="1" source="NtRPMFcYEE0_hsODAvMU-7" target="NtRPMFcYEE0_hsODAvMU-10">
          <mxGeometry relative="1" as="geometry">
            <Array as="points">
              <mxPoint x="420" y="1540" />
              <mxPoint x="420" y="1540" />
            </Array>
          </mxGeometry>
        </mxCell>
        <mxCell id="NtRPMFcYEE0_hsODAvMU-6" value="read/write" style="edgeLabel;html=1;align=center;verticalAlign=middle;resizable=0;points=[];" vertex="1" connectable="0" parent="NtRPMFcYEE0_hsODAvMU-5">
          <mxGeometry x="-0.2477" y="-2" relative="1" as="geometry">
            <mxPoint as="offset" />
          </mxGeometry>
        </mxCell>
        <mxCell id="NtRPMFcYEE0_hsODAvMU-7" value="Vrtio-Net&lt;br&gt;FE Driver" style="rounded=0;whiteSpace=wrap;html=1;labelBackgroundColor=none;strokeColor=default;fontSize=15;fontColor=default;fillColor=none;" vertex="1" parent="1">
          <mxGeometry x="360" y="1440" width="120" height="60" as="geometry" />
        </mxCell>
        <mxCell id="NtRPMFcYEE0_hsODAvMU-8" value="" style="edgeStyle=orthogonalEdgeStyle;rounded=0;orthogonalLoop=1;jettySize=auto;html=1;" edge="1" parent="1" source="NtRPMFcYEE0_hsODAvMU-10" target="NtRPMFcYEE0_hsODAvMU-13">
          <mxGeometry relative="1" as="geometry" />
        </mxCell>
        <mxCell id="NtRPMFcYEE0_hsODAvMU-9" value="trap" style="edgeLabel;html=1;align=center;verticalAlign=middle;resizable=0;points=[];" vertex="1" connectable="0" parent="NtRPMFcYEE0_hsODAvMU-8">
          <mxGeometry x="0.255" y="-2" relative="1" as="geometry">
            <mxPoint x="2" y="-8" as="offset" />
          </mxGeometry>
        </mxCell>
        <mxCell id="NtRPMFcYEE0_hsODAvMU-10" value="MMIO&lt;br&gt;Register" style="whiteSpace=wrap;html=1;fontSize=15;fillColor=none;rounded=0;labelBackgroundColor=none;" vertex="1" parent="1">
          <mxGeometry x="360" y="1560" width="120" height="60" as="geometry" />
        </mxCell>
        <mxCell id="NtRPMFcYEE0_hsODAvMU-11" value="" style="edgeStyle=orthogonalEdgeStyle;rounded=0;orthogonalLoop=1;jettySize=auto;html=1;" edge="1" parent="1" source="NtRPMFcYEE0_hsODAvMU-13" target="NtRPMFcYEE0_hsODAvMU-16">
          <mxGeometry relative="1" as="geometry" />
        </mxCell>
        <mxCell id="NtRPMFcYEE0_hsODAvMU-12" value="read/write callback" style="edgeLabel;html=1;align=center;verticalAlign=middle;resizable=0;points=[];" vertex="1" connectable="0" parent="NtRPMFcYEE0_hsODAvMU-11">
          <mxGeometry x="-0.257" y="1" relative="1" as="geometry">
            <mxPoint as="offset" />
          </mxGeometry>
        </mxCell>
        <mxCell id="NtRPMFcYEE0_hsODAvMU-13" value="Dev Emulator" style="whiteSpace=wrap;html=1;fontSize=15;fillColor=none;rounded=0;labelBackgroundColor=none;" vertex="1" parent="1">
          <mxGeometry x="360" y="1680" width="120" height="60" as="geometry" />
        </mxCell>
        <mxCell id="NtRPMFcYEE0_hsODAvMU-14" value="" style="edgeStyle=orthogonalEdgeStyle;rounded=0;orthogonalLoop=1;jettySize=auto;html=1;" edge="1" parent="1" source="NtRPMFcYEE0_hsODAvMU-16" target="NtRPMFcYEE0_hsODAvMU-17">
          <mxGeometry relative="1" as="geometry" />
        </mxCell>
        <mxCell id="NtRPMFcYEE0_hsODAvMU-15" value="mmio read/write" style="edgeLabel;html=1;align=center;verticalAlign=middle;resizable=0;points=[];" vertex="1" connectable="0" parent="NtRPMFcYEE0_hsODAvMU-14">
          <mxGeometry x="-0.2416" y="1" relative="1" as="geometry">
            <mxPoint x="-1" as="offset" />
          </mxGeometry>
        </mxCell>
        <mxCell id="NtRPMFcYEE0_hsODAvMU-16" value="Vrtio-Net&lt;br&gt;BE Device" style="whiteSpace=wrap;html=1;fontSize=15;fillColor=none;rounded=0;labelBackgroundColor=none;" vertex="1" parent="1">
          <mxGeometry x="360" y="1800" width="120" height="60" as="geometry" />
        </mxCell>
        <mxCell id="NtRPMFcYEE0_hsODAvMU-17" value="MMIO&lt;br&gt;Register" style="whiteSpace=wrap;html=1;fontSize=15;fillColor=none;rounded=0;labelBackgroundColor=none;" vertex="1" parent="1">
          <mxGeometry x="360" y="1920" width="120" height="60" as="geometry" />
        </mxCell>
        <mxCell id="NtRPMFcYEE0_hsODAvMU-18" value="" style="endArrow=none;html=1;rounded=0;edgeStyle=orthogonalEdgeStyle;entryX=0.5;entryY=1;entryDx=0;entryDy=0;" edge="1" parent="1" target="NtRPMFcYEE0_hsODAvMU-17">
          <mxGeometry width="50" height="50" relative="1" as="geometry">
            <mxPoint x="220" y="2030" as="sourcePoint" />
            <mxPoint x="280" y="1970" as="targetPoint" />
            <Array as="points">
              <mxPoint x="220" y="2020" />
              <mxPoint x="420" y="2020" />
            </Array>
          </mxGeometry>
        </mxCell>
        <mxCell id="NtRPMFcYEE0_hsODAvMU-19" value="" style="endArrow=none;html=1;rounded=0;exitX=0.5;exitY=0;exitDx=0;exitDy=0;edgeStyle=orthogonalEdgeStyle;entryX=0.5;entryY=1;entryDx=0;entryDy=0;" edge="1" parent="1" source="NtRPMFcYEE0_hsODAvMU-2" target="NtRPMFcYEE0_hsODAvMU-17">
          <mxGeometry width="50" height="50" relative="1" as="geometry">
            <mxPoint x="270" y="2290" as="sourcePoint" />
            <mxPoint x="430" y="2010" as="targetPoint" />
            <Array as="points">
              <mxPoint x="352" y="2020" />
              <mxPoint x="420" y="2020" />
            </Array>
          </mxGeometry>
        </mxCell>
        <mxCell id="NtRPMFcYEE0_hsODAvMU-20" value="" style="endArrow=none;html=1;rounded=0;edgeStyle=orthogonalEdgeStyle;exitX=0.5;exitY=0;exitDx=0;exitDy=0;" edge="1" parent="1" source="NtRPMFcYEE0_hsODAvMU-3">
          <mxGeometry width="50" height="50" relative="1" as="geometry">
            <mxPoint x="560" y="2080" as="sourcePoint" />
            <mxPoint x="420" y="1980" as="targetPoint" />
            <Array as="points">
              <mxPoint x="492" y="2020" />
              <mxPoint x="420" y="2020" />
            </Array>
          </mxGeometry>
        </mxCell>
        <mxCell id="NtRPMFcYEE0_hsODAvMU-21" value="" style="endArrow=none;html=1;rounded=0;edgeStyle=orthogonalEdgeStyle;entryX=0.5;entryY=1;entryDx=0;entryDy=0;exitX=0.5;exitY=0;exitDx=0;exitDy=0;" edge="1" parent="1" source="NtRPMFcYEE0_hsODAvMU-4" target="NtRPMFcYEE0_hsODAvMU-17">
          <mxGeometry width="50" height="50" relative="1" as="geometry">
            <mxPoint x="560" y="2140" as="sourcePoint" />
            <mxPoint x="610" y="2090" as="targetPoint" />
            <Array as="points">
              <mxPoint x="648" y="2020" />
              <mxPoint x="420" y="2020" />
            </Array>
          </mxGeometry>
        </mxCell>
        <mxCell id="NtRPMFcYEE0_hsODAvMU-22" value="virtio_ops" style="edgeLabel;html=1;align=center;verticalAlign=middle;resizable=0;points=[];" vertex="1" connectable="0" parent="NtRPMFcYEE0_hsODAvMU-21">
          <mxGeometry x="0.8284" relative="1" as="geometry">
            <mxPoint as="offset" />
          </mxGeometry>
        </mxCell>
        <mxCell id="NtRPMFcYEE0_hsODAvMU-23" value="" style="endArrow=none;dashed=1;html=1;rounded=0;strokeWidth=2;" edge="1" parent="1">
          <mxGeometry width="50" height="50" relative="1" as="geometry">
            <mxPoint x="160" y="1640" as="sourcePoint" />
            <mxPoint x="720" y="1640" as="targetPoint" />
          </mxGeometry>
        </mxCell>
        <mxCell id="NtRPMFcYEE0_hsODAvMU-24" value="" style="endArrow=none;dashed=1;html=1;strokeWidth=2;curved=1;" edge="1" parent="1">
          <mxGeometry width="50" height="50" relative="1" as="geometry">
            <mxPoint x="160" y="1420" as="sourcePoint" />
            <mxPoint x="720" y="1420" as="targetPoint" />
          </mxGeometry>
        </mxCell>
        <mxCell id="NtRPMFcYEE0_hsODAvMU-25" value="" style="endArrow=none;dashed=1;html=1;rounded=0;strokeWidth=2;" edge="1" parent="1">
          <mxGeometry width="50" height="50" relative="1" as="geometry">
            <mxPoint x="160" y="2120" as="sourcePoint" />
            <mxPoint x="720" y="2120" as="targetPoint" />
          </mxGeometry>
        </mxCell>
      </root>
    </mxGraphModel>
  </diagram>
</mxfile>
